<svg xmlns="http://www.w3.org/2000/svg" width="1024" height="1024" viewBox="0 0 1024 1024" role="img" aria-label="Rover app icon">
  <defs>
    <linearGradient id="tile" x1="0" y1="0" x2="1" y2="1">
      <stop offset="0" stop-color="#B8F1DC"/>
      <stop offset="1" stop-color="#6EC8CE"/>
    </linearGradient>
  </defs>
  <rect x="40" y="40" width="944" height="944" rx="220" fill="url(#tile)"/>
  <!-- The same antenna-and-visor mark used in the menu bar and tray. -->
  <g transform="translate(48 65) scale(14.5)">
    <path d="M41 20 47 9" fill="none" stroke="#203B58" stroke-width="5" stroke-linecap="round"/>
    <circle cx="47" cy="7" r="5" fill="#203B58"/>
    <circle cx="47" cy="7" r="2.6" fill="#D8FFF0"/>
    <path d="M32 16c-12 0-22 7-22 19v9c0 9 7 14 16 14h12c9 0 16-5 16-14v-9c0-12-10-19-22-19Z" fill="#203B58"/>
    <path d="M22 26h20c5 0 8 4 8 9v5c0 5-4 9-9 9H23c-5 0-9-4-9-9v-5c0-5 3-9 8-9Z" fill="#D8FFF0"/>
    <ellipse cx="25" cy="37" rx="2.5" ry="4" fill="#203B58"/>
    <ellipse cx="39" cy="37" rx="2.5" ry="4" fill="#203B58"/>
  </g>
</svg>
