<svg xmlns="http://www.w3.org/2000/svg" viewBox="0 0 64 64" role="img" aria-label="Rover robot head">
  <!-- One-color status item: macOS colors this mask for light and dark menu bars. -->
  <defs>
    <mask id="visor-cutout">
      <rect width="64" height="64" fill="white"/>
      <path d="M22 26h20c5 0 8 4 8 9v5c0 5-4 9-9 9H23c-5 0-9-4-9-9v-5c0-5 3-9 8-9Z" fill="black"/>
    </mask>
  </defs>
  <path d="M41 20 47 9" fill="none" stroke="black" stroke-width="5" stroke-linecap="round"/>
  <circle cx="47" cy="7" r="5" fill="black"/>
  <path d="M32 16c-12 0-22 7-22 19v9c0 9 7 14 16 14h12c9 0 16-5 16-14v-9c0-12-10-19-22-19Z" fill="black" mask="url(#visor-cutout)"/>
  <ellipse cx="25" cy="37" rx="2.5" ry="4" fill="black"/>
  <ellipse cx="39" cy="37" rx="2.5" ry="4" fill="black"/>
</svg>
